# xmcd CD database file
#
# Track frame offsets:
#	150
#	21262
#	38344
#	60841
#	81251
#	107900
#	131973
#
# Disc length: 2059 seconds
#
# Revision: 0
# Processed by: cddbd v1.5.2PL0 Copyright (c) Steve Scherf et al.
# Submitted via: CDex 1.70beta3
#
DISCID=52080907
DTITLE=L'Arc～en～Ciel - QUADRINITY ～MEMBER'S BEST SELECTIONS～ hyde best [Disc 1]
DYEAR=1900
DGENRE=ロック
TTITLE0=I'm so happy
TTITLE1=HONEY
TTITLE2=flower
TTITLE3=さようなら
TTITLE4=Anemone
TTITLE5=いばらの涙
TTITLE6=In the Air
EXTD=
EXTT0=
EXTT1=
EXTT2=
EXTT3=
EXTT4=
EXTT5=
EXTT6=
PLAYORDER=
